<svg xmlns="http://www.w3.org/2000/svg" width="376.953" height="375" viewBox="0 0 376.953 375">
  <path id="c_blau" data-name="c! blau" d="M208.984-165.527q-12.7-11.23-24.414-16.357a60.861,60.861,0,0,0-24.658-5.127q-25.879,0-41.138,17.09t-15.259,46.387q0,28.32,15.869,45.166t42.725,16.846a59.392,59.392,0,0,0,24.78-5.249,71.785,71.785,0,0,0,22.095-16.235V-7.568a133.908,133.908,0,0,1-31.25,12.939,124.993,124.993,0,0,1-32.227,4.15q-56.885,0-92.163-36.5T18.066-123.047q0-57.861,36.011-94.6t92.407-36.743a144.585,144.585,0,0,1,33.936,3.662,101.691,101.691,0,0,1,28.564,11.719ZM250-40.527q0-20.02,14.526-34.546A47.745,47.745,0,0,1,299.561-89.6q20.752,0,35.034,14.16t14.282,34.912q0,21-14.4,35.278A47.751,47.751,0,0,1,299.561,9.033,47.546,47.546,0,0,1,264.526-5.615Q250-20.264,250-40.527Zm53.955-324.951H395.02l-39.062,247.07H264.893Z" transform="translate(-18.066 365.479)" fill="#0672aa"/>
</svg>
