<svg id="logo_weiß_RGB_" data-name="logo_weiß(RGB)" xmlns="http://www.w3.org/2000/svg" width="358" height="124.269" viewBox="0 0 358 124.269">
  <g id="Gruppe_1" data-name="Gruppe 1" transform="translate(50.358 18.876)">
    <path id="Pfad_1" data-name="Pfad 1" d="M193.92,247.457a11.443,11.443,0,0,0-3.908-2.853,11.934,11.934,0,0,0-4.832-1,9.293,9.293,0,0,0-7.153,2.893,12.437,12.437,0,0,0,0,15.481,9.8,9.8,0,0,0,7.474,2.843,10.91,10.91,0,0,0,4.742-1A10.2,10.2,0,0,0,193.9,260.8v8.419a16.877,16.877,0,0,1-4.31,1.688,20.193,20.193,0,0,1-4.882.573A16.4,16.4,0,0,1,172.5,266.7a16.787,16.787,0,0,1-4.722-12.347c0-5.113,1.627-9.252,4.882-12.387s7.514-4.722,12.779-4.722a19.732,19.732,0,0,1,4.571.5,14.808,14.808,0,0,1,3.888,1.507Z" transform="translate(-167.767 -219.921)" fill="#fff"/>
    <path id="Pfad_2" data-name="Pfad 2" d="M198.85,254.328a16.576,16.576,0,0,1,1.326-6.59,16.968,16.968,0,0,1,3.807-5.525,17.309,17.309,0,0,1,5.636-3.657,18.334,18.334,0,0,1,13.442,0,17.26,17.26,0,0,1,5.686,3.757,16.918,16.918,0,0,1,3.828,5.535,16.425,16.425,0,0,1,1.316,6.48,16.9,16.9,0,0,1-1.3,6.61,16.144,16.144,0,0,1-3.777,5.465,18.223,18.223,0,0,1-5.807,3.807,17.842,17.842,0,0,1-13.351,0,17.631,17.631,0,0,1-9.5-9.313,16.606,16.606,0,0,1-1.306-6.57Zm27.375.06a10.609,10.609,0,0,0-2.863-7.5,9.473,9.473,0,0,0-13.974,0,11.252,11.252,0,0,0,0,15.069,9.463,9.463,0,0,0,13.964,0,10.578,10.578,0,0,0,2.873-7.565Z" transform="translate(-167.624 -219.92)" fill="#fff"/>
    <path id="Pfad_3" data-name="Pfad 3" d="M241.36,270.151V238.415h6.851v5.154a13.743,13.743,0,0,1,5.123-4.782,15.682,15.682,0,0,1,7.183-1.507,14.818,14.818,0,0,1,6.028,1.125,8.76,8.76,0,0,1,3.908,3.335,9.162,9.162,0,0,1,1.216,3.014,34.657,34.657,0,0,1,.362,6.1v19.3h-7.344V253.836q0-6.269-1.527-8.338t-5.415-2.059a10.589,10.589,0,0,0-4.551.934,7.535,7.535,0,0,0-3.134,2.652,7.133,7.133,0,0,0-1.125,2.943,36.433,36.433,0,0,0-.322,5.716v14.466Z" transform="translate(-167.428 -219.921)" fill="#fff"/>
    <path id="Pfad_4" data-name="Pfad 4" d="M281.56,270.151V238.415H288.4v5.154a13.763,13.763,0,0,1,5.134-4.782,15.652,15.652,0,0,1,7.183-1.507,14.818,14.818,0,0,1,6.028,1.125,8.82,8.82,0,0,1,3.908,3.335,8.94,8.94,0,0,1,1.205,3.014,33.421,33.421,0,0,1,.372,6.1v19.3h-7.344V253.836q0-6.269-1.527-8.338t-5.425-2.059a10.569,10.569,0,0,0-4.541.934,7.625,7.625,0,0,0-3.144,2.652,7.273,7.273,0,0,0-1.125,2.943,36.741,36.741,0,0,0-.311,5.716v14.466Z" transform="translate(-167.243 -219.921)" fill="#fff"/>
    <path id="Pfad_5" data-name="Pfad 5" d="M352.4,255.363H326.975a10.719,10.719,0,0,0,2.652,7.032,8.338,8.338,0,0,0,6.339,2.5,10.77,10.77,0,0,0,5.877-1.487,12.055,12.055,0,0,0,4.089-4.792l6.158,3.446a18.655,18.655,0,0,1-6.64,7.143,17.9,17.9,0,0,1-9.3,2.351c-5.093,0-9.162-1.557-12.176-4.671s-4.531-7.253-4.531-12.447a16.867,16.867,0,0,1,4.681-12.286,16,16,0,0,1,12.055-4.822q7.685,0,11.975,4.4t4.29,12.306Zm-7.535-4.892a7.735,7.735,0,0,0-2.622-5.234,9.112,9.112,0,0,0-5.967-1.8,8.961,8.961,0,0,0-5.776,1.748,9.372,9.372,0,0,0-3.014,5.284Z" transform="translate(-167.069 -219.92)" fill="#fff"/>
    <path id="Pfad_6" data-name="Pfad 6" d="M383.59,247.457a11.573,11.573,0,0,0-3.918-2.853,11.925,11.925,0,0,0-4.822-1,9.323,9.323,0,0,0-7.163,2.893A10.819,10.819,0,0,0,365,254.157c0,3.315.894,5.927,2.7,7.816a9.8,9.8,0,0,0,7.474,2.843,10.88,10.88,0,0,0,4.742-1,10.227,10.227,0,0,0,3.667-3.014v8.419a16.944,16.944,0,0,1-4.32,1.688,20.189,20.189,0,0,1-4.882.573,16.4,16.4,0,0,1-12.206-4.772,16.777,16.777,0,0,1-4.712-12.347c0-5.113,1.627-9.252,4.882-12.387s7.514-4.722,12.768-4.722a19.662,19.662,0,0,1,4.571.5,15.069,15.069,0,0,1,3.9,1.507Z" transform="translate(-166.894 -219.921)" fill="#fff"/>
    <path id="Pfad_7" data-name="Pfad 7" d="M392.535,270.2V244.8H387v-6.339h5.586V226.41h7.283v12.055h5.6V244.8h-5.6v25.4Z" transform="translate(-166.758 -219.97)" fill="#fff"/>
    <path id="Pfad_8" data-name="Pfad 8" d="M408.62,270.216l4.2-31.765h7.233l-4.209,31.765Zm4.772-42.886a4.089,4.089,0,0,1,1.266-3.014,4.323,4.323,0,0,1,6.108,6.118,4.069,4.069,0,0,1-3.014,1.246,4.256,4.256,0,0,1-4.36-4.32Z" transform="translate(-166.659 -219.986)" fill="#fff"/>
    <path id="Pfad_9" data-name="Pfad 9" d="M435.706,272.064,423.56,238.41h7.474l4.923,15.21a25.234,25.234,0,0,1,.683,2.733,28.652,28.652,0,0,1,.422,3.014,23.2,23.2,0,0,1,1-2.642,26.447,26.447,0,0,1,1.406-2.682l9.112-15.652h8.167Z" transform="translate(-166.59 -219.915)" fill="#fff"/>
    <path id="Pfad_10" data-name="Pfad 10" d="M459.59,267.056a4.219,4.219,0,0,1,1.286-3.114,4.33,4.33,0,0,1,3.175-1.276,4.39,4.39,0,0,1,3.164,1.256,4.2,4.2,0,0,1,1.286,3.134,4.4,4.4,0,0,1-1.286,3.2,4.456,4.456,0,0,1-7.625-3.2Zm1.838-8.1L466.662,220h7.4l-5.184,38.928Z" transform="translate(-166.424 -220)" fill="#fff"/>
  </g>
  <g id="Gruppe_2" data-name="Gruppe 2" transform="translate(215.509 75.215)">
    <path id="Pfad_11" data-name="Pfad 11" d="M345.642,293.9H334.28a6.952,6.952,0,0,0,1.386,4.36,4.31,4.31,0,0,0,3.5,1.577,4.612,4.612,0,0,0,2.773-.854,6.41,6.41,0,0,0,2.009-2.6l1.828,1a7.976,7.976,0,0,1-2.682,3.215,7.032,7.032,0,0,1-3.9,1,6.58,6.58,0,0,1-5.073-2.1,7.816,7.816,0,0,1-1.949-5.515,8.218,8.218,0,0,1,1.929-5.676,6.43,6.43,0,0,1,5.023-2.15,6.088,6.088,0,0,1,4.752,2.009,7.615,7.615,0,0,1,1.788,5.3Zm-2.351-1.688a4.089,4.089,0,0,0-4.45-4.119,4.32,4.32,0,0,0-3.014,1.125,4.561,4.561,0,0,0-1.406,3.014Z" transform="translate(-332.161 -276.034)" fill="#fff"/>
    <path id="Pfad_12" data-name="Pfad 12" d="M348.18,297.092l1.818-1a5.023,5.023,0,0,0,1.778,2.682,4.872,4.872,0,0,0,3.014,1,4.6,4.6,0,0,0,3.5-1.326,5.093,5.093,0,0,0,1.256-3.657,4.6,4.6,0,0,0-.844-2.833,11.7,11.7,0,0,0-3.637-2.6,16.5,16.5,0,0,1-4.742-3.325,5.726,5.726,0,0,1,.532-7.535,6.208,6.208,0,0,1,4.41-1.577,6.1,6.1,0,0,1,3.084.743,5.686,5.686,0,0,1,2.14,2.24l-1.668,1a3.617,3.617,0,0,0-1.467-1.537,4.47,4.47,0,0,0-2.23-.532,3.747,3.747,0,0,0-2.773,1,3.707,3.707,0,0,0-1,2.763q0,2.491,4.1,4.621l1.125.6a11.785,11.785,0,0,1,4.018,3.134,6.59,6.59,0,0,1,1,3.817,7.032,7.032,0,0,1-10.85,5.746A7.364,7.364,0,0,1,348.18,297.092Z" transform="translate(-332.088 -276.076)" fill="#fff"/>
    <path id="Pfad_13" data-name="Pfad 13" d="M372.515,301.621a7.334,7.334,0,0,1-2.933-.6,8.387,8.387,0,0,1-2.542-1.728,7.153,7.153,0,0,1-1.638-2.451,7.707,7.707,0,0,1,7.113-10.709,8.037,8.037,0,0,1,3.014.573,7.806,7.806,0,0,1,4.239,4.179,7.615,7.615,0,0,1-1.668,8.358,8.037,8.037,0,0,1-2.572,1.728,7.716,7.716,0,0,1-3.014.653Zm.06-1.848a5.364,5.364,0,0,0,4.018-1.7,6.168,6.168,0,0,0,0-8.358,5.566,5.566,0,0,0-7.987,0,6.178,6.178,0,0,0,0,8.358A5.324,5.324,0,0,0,372.576,299.772Z" transform="translate(-332.011 -276.034)" fill="#fff"/>
    <path id="Pfad_14" data-name="Pfad 14" d="M386.5,301.044H384.49V276.08H386.5Z" transform="translate(-331.921 -276.08)" fill="#fff"/>
    <path id="Pfad_15" data-name="Pfad 15" d="M393.859,286.71v7.133a8.468,8.468,0,0,0,.924,4.591,4.31,4.31,0,0,0,6.259,0,8.238,8.238,0,0,0,.954-4.571V286.73h2.009v8.147a7.363,7.363,0,0,1-1.527,5.023,6.781,6.781,0,0,1-9.021,0,7.314,7.314,0,0,1-1.537-5.023V286.73Z" transform="translate(-331.887 -276.031)" fill="#fff"/>
    <path id="Pfad_16" data-name="Pfad 16" d="M409.592,288.435H407v-1.7h2.632V280.86h1.949v5.877h2.853v1.7h-2.853v12.588h-1.949Z" transform="translate(-331.817 -276.058)" fill="#fff"/>
    <path id="Pfad_17" data-name="Pfad 17" d="M416.94,281.187a1.417,1.417,0,0,1,.452-1.065,1.467,1.467,0,0,1,1.085-.442,1.511,1.511,0,0,1,1.085,2.582,1.6,1.6,0,0,1-2.19,0,1.467,1.467,0,0,1-.432-1.075Zm.5,19.841V286.742h2.009v14.285Z" transform="translate(-331.771 -276.063)" fill="#fff"/>
    <path id="Pfad_18" data-name="Pfad 18" d="M431.355,301.621a7.324,7.324,0,0,1-2.923-.6,8.428,8.428,0,0,1-2.552-1.728,7.292,7.292,0,0,1-1.638-2.451,7.665,7.665,0,0,1-.563-3.014,7.747,7.747,0,0,1,.573-2.964,7.656,7.656,0,0,1,1.668-2.481,7.574,7.574,0,0,1,2.491-1.678,7.716,7.716,0,0,1,2.944-.573,7.947,7.947,0,0,1,3.014.573,7.775,7.775,0,0,1,2.542,1.678,7.625,7.625,0,0,1,1.7,2.5,7.515,7.515,0,0,1,.593,2.943,7.7,7.7,0,0,1-.583,2.943,7.6,7.6,0,0,1-1.678,2.471,8.037,8.037,0,0,1-2.572,1.728,7.674,7.674,0,0,1-3.014.653Zm.07-1.848a5.365,5.365,0,0,0,4.018-1.7,5.766,5.766,0,0,0,1.637-4.169,5.837,5.837,0,0,0-1.627-4.189,5.566,5.566,0,0,0-7.987,0,6.178,6.178,0,0,0,0,8.358A5.344,5.344,0,0,0,431.426,299.773Z" transform="translate(-331.74 -276.034)" fill="#fff"/>
    <path id="Pfad_19" data-name="Pfad 19" d="M443.18,301V286.712h1.879v2.2a5.776,5.776,0,0,1,2.14-2.009,5.937,5.937,0,0,1,2.9-.683,4.691,4.691,0,0,1,5.134,5.123v9.694h-2.009v-8.81a4.822,4.822,0,0,0-.894-3.185,3.446,3.446,0,0,0-2.763-1,4.019,4.019,0,0,0-3.335,1.346,6.68,6.68,0,0,0-1.075,4.219v7.464Z" transform="translate(-331.651 -276.034)" fill="#fff"/>
    <path id="Pfad_20" data-name="Pfad 20" d="M458.66,298.457l1.889-1.075a3.707,3.707,0,0,0,1.346,1.788,3.808,3.808,0,0,0,2.18.6,3.014,3.014,0,0,0,2.009-.633,2.15,2.15,0,0,0,.743-1.7c0-1.1-1-2.009-2.913-2.783-.211-.08-.372-.141-.492-.2a8.861,8.861,0,0,1-3.165-1.828,3.225,3.225,0,0,1-.9-2.331,3.838,3.838,0,0,1,1.3-3.014,4.742,4.742,0,0,1,3.335-1.165,5.586,5.586,0,0,1,3.014.753,4.44,4.44,0,0,1,1.788,2.15l-1.818,1a2.883,2.883,0,0,0-1.135-1.537,3.376,3.376,0,0,0-1.929-.532,2.461,2.461,0,0,0-1.708.6,1.949,1.949,0,0,0-.663,1.507,1.869,1.869,0,0,0,.663,1.467,8.983,8.983,0,0,0,2.742,1.276,7.193,7.193,0,0,1,3.1,1.828,4.019,4.019,0,0,1,.814,2.672,3.878,3.878,0,0,1-1.4,3.134,6.53,6.53,0,0,1-6.912.352A4.641,4.641,0,0,1,458.66,298.457Z" transform="translate(-331.579 -276.034)" fill="#fff"/>
  </g>
  <path id="Pfad_21" data-name="Pfad 21" d="M318.53,323.651c-100.671-2.853-180.055-34.769-180.055-73.758,0-18.655,18.193-35.673,48.151-48.683-42.113,12.849-68.986,32.348-68.986,54.178,0,38.717,84.5,70.091,188.735,70.091,9.443,0,18.716-.271,27.787-.763C328.878,324.435,323.654,324.093,318.53,323.651Z" transform="translate(-117.64 -201.21)" fill="#fff"/>
</svg>
