<svg xmlns="http://www.w3.org/2000/svg" width="602.528" height="209.149" viewBox="0 0 602.528 209.149">
  <g id="logo_blau_RGB_" data-name="logo_blau(RGB)" transform="translate(0.001)">
    <g id="Gruppe_1" data-name="Gruppe 1" transform="translate(84.756 31.768)">
      <path id="Pfad_1" data-name="Pfad 1" d="M211.791,254.443a19.261,19.261,0,0,0-6.578-4.8,20.088,20.088,0,0,0-8.133-1.689,15.626,15.626,0,0,0-12.039,4.87,20.931,20.931,0,0,0,0,26.043,16.485,16.485,0,0,0,12.579,4.784,18.363,18.363,0,0,0,7.98-1.689,17.162,17.162,0,0,0,6.154-5.071V291.06A28.409,28.409,0,0,1,204.5,293.9a33.989,33.989,0,0,1-8.218.964,27.594,27.594,0,0,1-20.544-8.032,28.253,28.253,0,0,1-7.947-20.778,27.646,27.646,0,0,1,8.218-20.834,29.727,29.727,0,0,1,21.508-7.947,33.211,33.211,0,0,1,7.694.845,24.923,24.923,0,0,1,6.544,2.537Z" transform="translate(-167.767 -208.099)" fill="#0672aa"/>
      <path id="Pfad_2" data-name="Pfad 2" d="M198.85,265.973a27.9,27.9,0,0,1,2.232-11.09,28.557,28.557,0,0,1,6.407-9.3,29.133,29.133,0,0,1,9.487-6.154,30.857,30.857,0,0,1,22.624,0,29.047,29.047,0,0,1,9.569,6.325,28.474,28.474,0,0,1,6.444,9.3,27.642,27.642,0,0,1,2.232,10.9,28.435,28.435,0,0,1-2.18,11.124,27.159,27.159,0,0,1-6.358,9.2,30.676,30.676,0,0,1-9.773,6.406,30.029,30.029,0,0,1-22.471,0,29.673,29.673,0,0,1-16-15.674,27.948,27.948,0,0,1-2.214-11.039Zm46.073.1a17.857,17.857,0,0,0-4.836-12.631,15.942,15.942,0,0,0-23.52,0,18.937,18.937,0,0,0,0,25.362,15.927,15.927,0,0,0,23.5,0,17.8,17.8,0,0,0,4.855-12.731Z" transform="translate(-146.295 -208.065)" fill="#0672aa"/>
      <path id="Pfad_3" data-name="Pfad 3" d="M241.36,292.606V239.2h11.533v8.672a23.13,23.13,0,0,1,8.624-8.047,26.415,26.415,0,0,1,12.088-2.537,24.925,24.925,0,0,1,10.146,1.894,14.743,14.743,0,0,1,6.578,5.614,15.422,15.422,0,0,1,2.046,5.071,58.291,58.291,0,0,1,.61,10.265v32.479H280.625V265.15q0-10.551-2.571-14.033a10.588,10.588,0,0,0-9.115-3.467,17.824,17.824,0,0,0-7.66,1.574A12.683,12.683,0,0,0,256,253.687a12,12,0,0,0-1.894,4.956,61.288,61.288,0,0,0-.54,9.621V292.61Z" transform="translate(-116.93 -208.068)" fill="#0672aa"/>
      <path id="Pfad_4" data-name="Pfad 4" d="M281.56,292.607V239.2h11.515v8.672a23.165,23.165,0,0,1,8.639-8.047,26.351,26.351,0,0,1,12.088-2.537,24.929,24.929,0,0,1,10.145,1.894,14.841,14.841,0,0,1,6.578,5.614,15.044,15.044,0,0,1,2.028,5.071,56.245,56.245,0,0,1,.625,10.265v32.479H320.818v-27.46q0-10.551-2.571-14.033a10.614,10.614,0,0,0-9.13-3.467,17.79,17.79,0,0,0-7.642,1.574,12.838,12.838,0,0,0-5.294,4.464,12.246,12.246,0,0,0-1.894,4.956,61.743,61.743,0,0,0-.525,9.621v24.346Z" transform="translate(-89.159 -208.068)" fill="#0672aa"/>
      <path id="Pfad_5" data-name="Pfad 5" d="M374.911,267.678H332.126a18.04,18.04,0,0,0,4.464,11.835,14.033,14.033,0,0,0,10.67,4.211,18.122,18.122,0,0,0,9.892-2.5,20.283,20.283,0,0,0,6.883-8.066l10.365,5.8a31.4,31.4,0,0,1-11.161,12.021,30.135,30.135,0,0,1-15.656,3.955,27.222,27.222,0,0,1-20.492-7.861,28.829,28.829,0,0,1-7.627-20.95,28.391,28.391,0,0,1,7.88-20.678,30.239,30.239,0,0,1,40.445-.711,28.423,28.423,0,0,1,7.221,20.711Zm-12.683-8.233a13.021,13.021,0,0,0-4.412-8.81,15.335,15.335,0,0,0-10.045-3.029,15.079,15.079,0,0,0-9.722,2.943,15.772,15.772,0,0,0-5.071,8.892Z" transform="translate(-62.988 -208.025)" fill="#0672aa"/>
      <path id="Pfad_6" data-name="Pfad 6" d="M401.438,254.443a19.471,19.471,0,0,0-6.593-4.8,20.088,20.088,0,0,0-8.114-1.689,15.693,15.693,0,0,0-12.054,4.87,20.991,20.991,0,0,0,.034,26.043,16.485,16.485,0,0,0,12.579,4.784,18.308,18.308,0,0,0,7.98-1.689,17.214,17.214,0,0,0,6.172-5.071v14.167a28.515,28.515,0,0,1-7.27,2.842,34.015,34.015,0,0,1-8.218.964,27.594,27.594,0,0,1-20.544-8.032,28.238,28.238,0,0,1-7.928-20.778,27.642,27.642,0,0,1,8.219-20.834,29.714,29.714,0,0,1,21.489-7.947,33.086,33.086,0,0,1,7.694.845,25.354,25.354,0,0,1,6.559,2.537Z" transform="translate(-36.727 -208.098)" fill="#0672aa"/>
      <path id="Pfad_7" data-name="Pfad 7" d="M396.3,300.111V257.367H387V246.7h9.4V226.41H408.66V246.7h9.416v10.67H408.66v42.74Z" transform="translate(-16.321 -215.572)" fill="#0672aa"/>
      <path id="Pfad_8" data-name="Pfad 8" d="M408.62,302.439l7.069-53.462h12.173l-7.069,53.462Zm8.032-72.176a6.883,6.883,0,0,1,2.132-5.071,7.276,7.276,0,1,1,10.281,10.3,6.847,6.847,0,0,1-5.073,2.1,7.162,7.162,0,0,1-7.336-7.27Z" transform="translate(-1.389 -217.912)" fill="#0672aa"/>
      <path id="Pfad_9" data-name="Pfad 9" d="M444,295.077,423.56,238.438h12.579l8.285,25.6a42.6,42.6,0,0,1,1.15,4.6,48.3,48.3,0,0,1,.711,5.071,39.087,39.087,0,0,1,1.689-4.464,44.474,44.474,0,0,1,2.366-4.513l15.335-26.344h13.747Z" transform="translate(8.933 -207.306)" fill="#0672aa"/>
      <path id="Pfad_10" data-name="Pfad 10" d="M459.591,299.2a7.1,7.1,0,0,1,2.166-5.242,7.284,7.284,0,0,1,5.342-2.147,7.389,7.389,0,0,1,5.324,2.113,7.07,7.07,0,0,1,2.166,5.275,7.407,7.407,0,0,1-2.165,5.394,7.5,7.5,0,0,1-12.832-5.394Zm3.1-13.628L471.492,220h12.46l-8.724,65.516Z" transform="translate(33.82 -220)" fill="#0672aa"/>
    </g>
    <g id="Gruppe_2" data-name="Gruppe 2" transform="translate(362.696 126.59)">
      <path id="Pfad_11" data-name="Pfad 11" d="M354.862,299.186H335.74a11.7,11.7,0,0,0,2.333,7.336,7.251,7.251,0,0,0,5.886,2.657,7.76,7.76,0,0,0,4.665-1.436,10.791,10.791,0,0,0,3.382-4.379l3.077,1.689a13.427,13.427,0,0,1-4.513,5.409,11.83,11.83,0,0,1-6.559,1.689,11.076,11.076,0,0,1-8.557-3.534,13.152,13.152,0,0,1-3.281-9.282,13.829,13.829,0,0,1,3.248-9.554,10.819,10.819,0,0,1,8.453-3.62,10.247,10.247,0,0,1,8,3.382,12.817,12.817,0,0,1,3.01,8.929Zm-3.955-2.839a6.879,6.879,0,0,0-7.489-6.931,7.271,7.271,0,0,0-5.071,1.894,7.675,7.675,0,0,0-2.366,5.071Z" transform="translate(-332.157 -269.126)" fill="#0672aa"/>
      <path id="Pfad_12" data-name="Pfad 12" d="M348.18,310.868l3.062-1.689a8.45,8.45,0,0,0,2.976,4.517,8.185,8.185,0,0,0,5.071,1.689,7.741,7.741,0,0,0,5.886-2.232,8.556,8.556,0,0,0,2.128-6.161,7.746,7.746,0,0,0-1.421-4.769,19.714,19.714,0,0,0-6.12-4.379,27.771,27.771,0,0,1-7.98-5.581,9.636,9.636,0,0,1,.9-12.683,10.45,10.45,0,0,1,7.441-2.653,10.266,10.266,0,0,1,5.209,1.25,9.566,9.566,0,0,1,3.6,3.769l-2.805,1.689a6.091,6.091,0,0,0-2.47-2.6,7.524,7.524,0,0,0-3.754-.9,6.324,6.324,0,0,0-4.665,1.689,6.239,6.239,0,0,0-1.689,4.651q0,4.193,6.9,7.776l1.894,1.016a19.835,19.835,0,0,1,6.764,5.276,11.1,11.1,0,0,1,1.693,6.425,11.835,11.835,0,0,1-18.26,9.673,12.4,12.4,0,0,1-4.353-5.77Z" transform="translate(-321.081 -275.498)" fill="#0672aa"/>
      <path id="Pfad_13" data-name="Pfad 13" d="M377.811,312.205a12.347,12.347,0,0,1-4.937-1.016,14.137,14.137,0,0,1-4.279-2.909,12.035,12.035,0,0,1-2.757-4.126,12.969,12.969,0,0,1,11.972-18.025,13.522,13.522,0,0,1,5.071.964,13.136,13.136,0,0,1,7.136,7.032,12.817,12.817,0,0,1-2.805,14.067,13.526,13.526,0,0,1-4.327,2.909,12.99,12.99,0,0,1-5.074,1.105Zm.1-3.11a9.029,9.029,0,0,0,6.763-2.857,10.384,10.384,0,0,0,0-14.067,9.368,9.368,0,0,0-13.442,0,10.417,10.417,0,0,0,0,14.067,8.962,8.962,0,0,0,6.682,2.85Z" transform="translate(-309.627 -269.142)" fill="#0672aa"/>
      <path id="Pfad_14" data-name="Pfad 14" d="M387.873,318.094h-3.382V276.08h3.382Z" transform="translate(-295.994 -276.08)" fill="#0672aa"/>
      <path id="Pfad_15" data-name="Pfad 15" d="M395.207,286.71v12.006a14.26,14.26,0,0,0,1.555,7.727,7.255,7.255,0,0,0,10.533,0,13.863,13.863,0,0,0,1.607-7.694V286.743h3.382v13.695a12.393,12.393,0,0,1-2.571,8.453,11.41,11.41,0,0,1-15.183,0,12.311,12.311,0,0,1-2.6-8.453V286.725Z" transform="translate(-290.892 -268.737)" fill="#0672aa"/>
      <path id="Pfad_16" data-name="Pfad 16" d="M411.364,293.61H407v-2.857h4.431V280.86h3.281v9.893h4.8v2.857h-4.8V314.8h-3.281Z" transform="translate(-280.447 -272.779)" fill="#0672aa"/>
      <path id="Pfad_17" data-name="Pfad 17" d="M416.941,282.217a2.38,2.38,0,0,1,.744-1.793,2.47,2.47,0,0,1,1.827-.744,2.541,2.541,0,0,1,1.827,4.345,2.7,2.7,0,0,1-3.687,0A2.469,2.469,0,0,1,416.941,282.217Zm.844,33.394V291.57h3.382v24.041Z" transform="translate(-273.583 -273.597)" fill="#0672aa"/>
      <path id="Pfad_18" data-name="Pfad 18" d="M436.638,312.206a12.335,12.335,0,0,1-4.922-1.016,14.18,14.18,0,0,1-4.293-2.909,12.28,12.28,0,0,1-2.757-4.126,13.044,13.044,0,0,1,2.824-14.238,12.747,12.747,0,0,1,4.193-2.824,12.984,12.984,0,0,1,4.956-.964,13.364,13.364,0,0,1,5.071.963,13.091,13.091,0,0,1,4.279,2.824,12.846,12.846,0,0,1,2.857,4.211,12.649,12.649,0,0,1,1,4.955,12.962,12.962,0,0,1-.982,4.956,12.784,12.784,0,0,1-2.824,4.159,13.527,13.527,0,0,1-4.327,2.909,12.917,12.917,0,0,1-5.071,1.1Zm.119-3.11a9.029,9.029,0,0,0,6.763-2.857,9.7,9.7,0,0,0,2.757-7.017,9.821,9.821,0,0,0-2.738-7.069,9.368,9.368,0,0,0-13.442,0,10.417,10.417,0,0,0,0,14.067,8.995,8.995,0,0,0,6.663,2.857Z" transform="translate(-268.968 -269.142)" fill="#0672aa"/>
      <path id="Pfad_19" data-name="Pfad 19" d="M443.18,311.1V287.051h3.162v3.72a9.719,9.719,0,0,1,3.6-3.382,9.988,9.988,0,0,1,4.885-1.15,7.895,7.895,0,0,1,8.639,8.624v16.318h-3.382V296.352a8.115,8.115,0,0,0-1.488-5.361,5.8,5.8,0,0,0-4.65-1.693,6.764,6.764,0,0,0-5.614,2.266,11.243,11.243,0,0,0-1.808,7.1V311.23Z" transform="translate(-255.457 -269.078)" fill="#0672aa"/>
      <path id="Pfad_20" data-name="Pfad 20" d="M458.66,306.883l3.177-1.808a6.236,6.236,0,0,0,2.266,3.01,6.406,6.406,0,0,0,3.668,1.016,5.079,5.079,0,0,0,3.382-1.064,3.617,3.617,0,0,0,1.25-2.857c0-1.86-1.689-3.382-4.9-4.684a8.124,8.124,0,0,1-.83-.339,14.914,14.914,0,0,1-5.324-3.077,5.424,5.424,0,0,1-1.522-3.921,6.458,6.458,0,0,1,2.18-5.071,7.98,7.98,0,0,1,5.614-1.961,9.4,9.4,0,0,1,5.071,1.269,7.479,7.479,0,0,1,3.01,3.62l-3.062,1.689a4.836,4.836,0,0,0-1.912-2.6,5.679,5.679,0,0,0-3.244-.9,4.142,4.142,0,0,0-2.876,1.016,3.28,3.28,0,0,0-1.116,2.537,3.144,3.144,0,0,0,1.116,2.467,15.126,15.126,0,0,0,4.617,2.147,12.111,12.111,0,0,1,5.209,3.077,6.763,6.763,0,0,1,1.369,4.5,6.524,6.524,0,0,1-2.351,5.275,10.99,10.99,0,0,1-11.634.591,7.814,7.814,0,0,1-3.155-3.929Z" transform="translate(-244.764 -269.136)" fill="#0672aa"/>
    </g>
    <path id="Pfad_21" data-name="Pfad 21" d="M455.748,407.282c-169.434-4.8-303.041-58.518-303.041-124.138,0-31.4,30.619-60.04,81.038-81.934-70.877,21.627-116.106,54.444-116.106,91.183,0,65.163,142.212,117.966,317.647,117.966,15.894,0,31.5-.458,46.765-1.284C473.163,408.6,464.372,408.026,455.748,407.282Z" transform="translate(-117.64 -201.21)" fill="#0672aa"/>
  </g>
</svg>
